<svg width="679" height="592" viewBox="0 0 679 592" fill="none" xmlns="http://www.w3.org/2000/svg">
<path opacity="0.44" d="M223.957 533.607C223.957 533.607 -6.96674 530.394 0.730728 540.431C29.315 577.823 138.145 552.273 138.886 555.308C139.626 558.342 162.215 596.578 251.165 591.323C340.115 586.068 336.814 564.397 351.824 558.638C366.834 552.88 621.206 581.982 664.504 547.477C694.288 523.792 676.347 516.199 621.176 511.624C151.246 472.678 223.957 533.607 223.957 533.607V533.607Z" fill="#D8CCBE"/>
<path d="M111.486 52.0114C111.486 52.0114 147.634 -10.4269 243.127 1.51895C338.62 13.4648 328.11 67.954 394.249 65.3043C460.388 62.6546 532.359 24.1081 591.127 99.7949C659.22 187.576 542.825 262.256 589.069 315.916C671.965 412.031 589.069 525.332 404.034 503.823C250.588 486.06 249.211 460.969 160.142 491.285C71.0738 521.601 -9.91249 409.662 22.4761 322.045C54.8647 234.427 137.08 267.822 98.5478 196.221C60.0161 124.619 111.486 52.0114 111.486 52.0114V52.0114Z" fill="#F9EAD8"/>
<path d="M175.212 330.956H52.2001V428.965H175.212V330.956Z" fill="#E4AC6F"/>
<path d="M183.56 330.956H128.716V428.965H183.56V330.956Z" fill="#DB9166"/>
<path d="M99.6136 330.956H79.3189V363.285H99.6136V330.956Z" fill="#EDC78F"/>
<path d="M79.3189 360.414V363.285V366.157L82.694 363.285L79.3189 360.414Z" fill="#EDC78F"/>
<path d="M86.0838 360.414L82.694 363.285L86.0838 366.157L89.4737 363.285L86.0838 360.414Z" fill="#EDC78F"/>
<path d="M92.8487 360.414L89.4737 363.285L92.8487 366.157L96.2386 363.285L92.8487 360.414Z" fill="#EDC78F"/>
<path d="M99.6137 360.414L96.2386 363.285L99.6137 366.157V363.285V360.414Z" fill="#EDC78F"/>
<path d="M77.3206 431.289C77.3206 431.289 69.3419 418.426 67.5507 405.103C65.7596 391.781 59.3351 367.341 55.22 361.879C51.1048 356.417 80.0443 370.183 80.6956 396.355C81.1101 412.83 92.4047 421.031 88.023 428.003C83.6414 434.975 77.3206 431.289 77.3206 431.289V431.289Z" fill="#306A72"/>
<path d="M82.1907 415.288C82.1907 415.288 74.0343 390.212 85.1513 363.833C91.9902 347.639 84.1151 332.865 87.2236 336.226C90.3322 339.586 100.768 343.553 99.6581 363.211C98.5478 382.869 95.8685 401.58 97.7485 410.58C99.6284 419.58 101.967 424.288 94.7879 424.288C87.6085 424.288 82.1907 415.288 82.1907 415.288V415.288Z" fill="#306A72"/>
<path d="M95.7057 420.172C95.5429 419.092 92.2419 395.407 100.768 381.552C109.295 367.696 103.374 349.622 105.772 351.68C108.17 353.737 118.221 367.311 115.956 384.69C114.202 397.282 110.715 409.572 105.594 421.209C103.61 425.649 96.4754 425.368 95.7057 420.172V420.172Z" fill="#306A72"/>
<path d="M109.472 411.572H68.1576C67.4161 411.572 66.6841 411.739 66.0156 412.06C65.347 412.38 64.7588 412.847 64.2944 413.425C63.8299 414.003 63.501 414.678 63.3319 415.4C63.1628 416.122 63.1577 416.873 63.3171 417.597L68.5129 440.896C68.7611 441.996 69.3752 442.978 70.2546 443.683C71.134 444.387 72.2265 444.772 73.3534 444.775H104.277C105.402 444.772 106.492 444.386 107.369 443.681C108.246 442.976 108.857 441.994 109.102 440.896L114.313 417.538C114.462 416.818 114.449 416.073 114.276 415.359C114.102 414.644 113.771 413.977 113.308 413.406C112.845 412.835 112.26 412.375 111.597 412.057C110.933 411.74 110.208 411.574 109.472 411.572V411.572Z" fill="#CE5E4C"/>
<path d="M518.874 324.605C533.909 324.605 546.097 312.418 546.097 297.383C546.097 282.349 533.909 270.161 518.874 270.161C503.84 270.161 491.652 282.349 491.652 297.383C491.652 312.418 503.84 324.605 518.874 324.605Z" fill="#352B4C"/>
<path d="M518.874 307.138C524.262 307.138 528.629 302.771 528.629 297.383C528.629 291.995 524.262 287.628 518.874 287.628C513.487 287.628 509.119 291.995 509.119 297.383C509.119 302.771 513.487 307.138 518.874 307.138Z" fill="#B7B7B7"/>
<path d="M342.128 324.605C357.163 324.605 369.351 312.418 369.351 297.383C369.351 282.349 357.163 270.161 342.128 270.161C327.094 270.161 314.906 282.349 314.906 297.383C314.906 312.418 327.094 324.605 342.128 324.605Z" fill="#352B4C"/>
<path d="M342.128 307.138C347.516 307.138 351.883 302.771 351.883 297.383C351.883 291.995 347.516 287.628 342.128 287.628C336.741 287.628 332.373 291.995 332.373 297.383C332.373 302.771 336.741 307.138 342.128 307.138Z" fill="#B7B7B7"/>
<path d="M412.249 104.058H294.256V271.789H412.249V104.058Z" fill="#BE5C51"/>
<path d="M530.287 104.058H294.256V186.377H530.287V104.058Z" fill="#D98B64"/>
<path d="M529.873 104.058H341.018V271.789H529.873V104.058Z" fill="#EFCC98"/>
<path d="M294.256 268.621V295.266H613.375C616.559 295.266 619.613 294.001 621.864 291.75C624.116 289.499 625.38 286.445 625.38 283.261V268.621H294.256Z" fill="#352B4C"/>
<path d="M529.887 136.358V268.621H599.949V177.214C599.894 166.326 595.518 155.905 587.781 148.244C580.045 140.582 569.582 136.307 558.694 136.358H529.887Z" fill="#E4AC6F"/>
<path d="M581.416 193.6V268.621H625.38V225.871C625.38 220.819 623.799 215.894 620.857 211.787C617.915 207.68 613.762 204.597 608.979 202.971L581.416 193.6Z" fill="#E4AC6F"/>
<path d="M564.097 156.401V189.248C564.209 192.128 565.457 194.846 567.568 196.807C569.679 198.769 572.482 199.814 575.362 199.714H599.949V177.214C599.948 171.239 598.629 165.338 596.085 159.931C593.542 154.525 589.837 149.746 585.235 145.935H575.317C572.445 145.847 569.654 146.898 567.552 148.858C565.451 150.818 564.209 153.529 564.097 156.401V156.401Z" fill="#352B4C"/>
<path d="M400.007 324.605C415.042 324.605 427.23 312.418 427.23 297.383C427.23 282.349 415.042 270.161 400.007 270.161C384.973 270.161 372.785 282.349 372.785 297.383C372.785 312.418 384.973 324.605 400.007 324.605Z" fill="#352B4C"/>
<path d="M400.007 307.138C405.395 307.138 409.763 302.771 409.763 297.383C409.763 291.995 405.395 287.628 400.007 287.628C394.62 287.628 390.252 291.995 390.252 297.383C390.252 302.771 394.62 307.138 400.007 307.138Z" fill="#FEFEFF"/>
<path d="M563.667 324.605C578.702 324.605 590.89 312.418 590.89 297.383C590.89 282.349 578.702 270.161 563.667 270.161C548.633 270.161 536.445 282.349 536.445 297.383C536.445 312.418 548.633 324.605 563.667 324.605Z" fill="#352B4C"/>
<path d="M563.667 307.138C569.055 307.138 573.422 302.771 573.422 297.383C573.422 291.995 569.055 287.628 563.667 287.628C558.28 287.628 553.912 291.995 553.912 297.383C553.912 302.771 558.28 307.138 563.667 307.138Z" fill="#FEFEFF"/>
<path d="M541.078 136.21H529.887V268.621H541.078V136.21Z" fill="#D98B64"/>
<path d="M207.393 428.965H6.68149V536.996H207.393V428.965Z" fill="#D98B64"/>
<path d="M230.382 428.965H94.4622V536.996H230.382V428.965Z" fill="#BE5C51"/>
<path d="M470.454 341.732H338.472V436.515H470.454V341.732Z" fill="#E4AC6F"/>
<path d="M470.054 341.732H410.34V436.515H470.054V341.732Z" fill="#DB9166"/>
<path d="M450.352 376.933V374.062V371.175V341.732H430.042V371.175V374.062V376.933L433.432 374.062L436.807 376.933L440.197 374.062L443.572 376.933L446.962 374.062L450.352 376.933Z" fill="#EDC78F"/>
<path d="M97.482 436.9H78.1791V467.645H97.482V436.9Z" fill="#EDC78F"/>
<path d="M78.1791 464.921V467.645V470.384L81.4061 467.645L78.1791 464.921Z" fill="#EDC78F"/>
<path d="M84.6184 464.921L81.4061 467.645L84.6184 470.384L87.8454 467.645L84.6184 464.921Z" fill="#EDC78F"/>
<path d="M91.0576 464.921L87.8454 467.645L91.0576 470.384L94.2698 467.645L91.0576 464.921Z" fill="#EDC78F"/>
<path d="M97.4968 464.921L94.2698 467.645L97.4968 470.384V467.645V464.921Z" fill="#EDC78F"/>
<path d="M586.464 327.625H506.543C480.734 327.625 459.811 348.548 459.811 374.358V467.719C459.811 493.529 480.734 514.452 506.543 514.452H586.464C612.273 514.452 633.196 493.529 633.196 467.719V374.358C633.196 348.548 612.273 327.625 586.464 327.625Z" fill="#306A72"/>
<path d="M501.111 438.78H591.911C602.865 438.78 613.369 443.131 621.115 450.876C628.86 458.621 633.211 469.126 633.211 480.079V521.276C633.211 526.379 631.184 531.274 627.575 534.883C623.966 538.492 619.071 540.519 613.967 540.519H477.619C472.907 540.519 468.389 538.648 465.058 535.317C461.727 531.985 459.855 527.467 459.855 522.756V480.065C459.859 469.121 464.206 458.627 471.941 450.886C479.676 443.146 490.168 438.791 501.111 438.78V438.78Z" fill="#29585E"/>
<path d="M457.457 415.85H446.266C436.456 415.85 428.503 423.803 428.503 433.613V523.614C428.503 533.425 436.456 541.378 446.266 541.378H457.457C467.268 541.378 475.221 533.425 475.221 523.614V433.613C475.221 423.803 467.268 415.85 457.457 415.85Z" fill="#2C6066"/>
<path d="M646.756 415.85H635.565C625.754 415.85 617.801 423.803 617.801 433.613V523.614C617.801 533.425 625.754 541.378 635.565 541.378H646.756C656.566 541.378 664.519 533.425 664.519 523.614V433.613C664.519 423.803 656.566 415.85 646.756 415.85Z" fill="#2C6066"/>
<path d="M562.35 464.167L453.268 464.315L453.534 541.541L562.616 541.393L562.35 464.167Z" fill="#E4AC6F"/>
<path d="M569.411 464.167L539.139 464.211L539.406 541.437L569.677 541.393L569.411 464.167Z" fill="#DB9166"/>
<path d="M501.658 493.254V490.886V488.502V464.167H484.887V488.502V490.886V493.254L487.684 490.886L490.482 493.254L493.28 490.886L496.063 493.254L498.861 490.886L501.658 493.254Z" fill="#EDC78F"/>
<path d="M453.52 433.51H327.326V541.541H453.52V433.51Z" fill="#D98B64"/>
<path d="M453.83 433.51H430.176V541.541H453.83V433.51Z" fill="#BE5C51"/>
<path d="M388.239 468.711V465.839V462.967V433.51H367.944V462.967V465.839V468.711L371.32 465.839L374.709 468.711L378.084 465.839L381.474 468.711L384.864 465.839L388.239 468.711Z" fill="#EDC78F"/>
<path d="M539.406 463.071H496.685V457.579C496.685 456.926 496.813 456.279 497.063 455.676C497.313 455.072 497.68 454.524 498.141 454.062C498.603 453.6 499.152 453.234 499.755 452.984C500.358 452.734 501.005 452.605 501.658 452.605H534.432C535.085 452.605 535.732 452.734 536.335 452.984C536.939 453.234 537.487 453.6 537.949 454.062C538.411 454.524 538.777 455.072 539.027 455.676C539.277 456.279 539.406 456.926 539.406 457.579V463.071Z" fill="#352B4C"/>
<path d="M518.341 420.661H517.734C514.497 420.661 511.872 423.285 511.872 426.523V451.984C511.872 455.221 514.497 457.846 517.734 457.846H518.341C521.579 457.846 524.203 455.221 524.203 451.984V426.523C524.203 423.285 521.579 420.661 518.341 420.661Z" fill="#352B4C"/>
<path d="M486.604 433.643H549.486C550.619 433.653 551.739 433.406 552.763 432.923C553.786 432.439 554.688 431.73 555.399 430.849C556.111 429.968 556.614 428.938 556.872 427.835C557.13 426.732 557.135 425.585 556.888 424.48L548.968 388.953C548.599 387.268 547.662 385.761 546.315 384.683C544.968 383.606 543.292 383.023 541.567 383.032H494.509C492.784 383.026 491.109 383.609 489.763 384.687C488.416 385.764 487.479 387.27 487.107 388.953L479.202 424.48C478.955 425.585 478.96 426.732 479.218 427.835C479.476 428.938 479.979 429.968 480.691 430.849C481.402 431.73 482.304 432.439 483.328 432.923C484.352 433.406 485.471 433.653 486.604 433.643V433.643Z" fill="#EFCC98"/>
<path d="M282.991 227.736C282.991 227.736 309.236 268.029 309.636 282.61C310.036 297.191 283.998 313.696 272.363 306.294C260.728 298.893 248.959 265.823 246.354 251.968C243.749 238.112 268.973 204.184 282.991 227.736Z" fill="#DA8E8D"/>
<path d="M326.556 258.437H246.384V327.063H326.556V258.437Z" fill="#E4AC6F"/>
<path d="M284.501 258.437H241.958V327.063H284.501V258.437Z" fill="#DB9166"/>
<path d="M199.696 147.342C199.696 147.342 205.839 176.177 202.404 179.094C198.97 182.01 174.916 187.176 172.562 184.674C170.208 182.173 163.503 160.99 162.763 156.786C162.022 152.582 199.696 147.342 199.696 147.342V147.342Z" fill="#DA8E8D"/>
<path d="M195.669 172.669C195.669 172.669 197.016 190.655 200.717 195.569C204.418 200.484 222.788 200.425 224.017 202.882C225.245 205.339 213.373 236.588 201.087 237.89C175.774 240.555 149.159 212.222 150.757 209.41C152.356 206.597 173.169 203.341 175.922 199.655C178.676 195.969 173.598 171.026 173.598 171.026L195.669 172.669Z" fill="#DA8E8D"/>
<path d="M161.652 137.157C161.652 137.157 176.233 126.706 192.25 136.728C208.266 146.749 205.898 180.826 186.417 182.883C169.542 184.659 152.889 156.194 161.652 137.157Z" fill="#DA8E8D"/>
<path d="M167.795 166.926C167.795 166.926 161.8 155.083 157.981 164.646C155.85 169.975 159.728 173.158 163.118 175.008C169.261 178.176 171.733 169.886 167.795 166.926V166.926Z" fill="#DA8E8D"/>
<path d="M198.926 159.362C198.926 159.362 196.439 148.792 203.944 152.597C208.133 154.713 207.349 158.799 206.15 161.76C203.974 167.044 198.008 163.343 198.926 159.362Z" fill="#DA8E8D"/>
<path d="M164.317 171.485C164.229 170.877 164.006 170.295 163.666 169.783C163.325 169.271 162.875 168.841 162.348 168.525C162.039 168.394 161.707 168.327 161.371 168.327C161.035 168.327 160.703 168.394 160.394 168.525L159.728 167.178C160.237 166.957 160.786 166.843 161.341 166.843C161.896 166.843 162.446 166.957 162.955 167.178C163.678 167.572 164.305 168.122 164.792 168.787C165.278 169.453 165.611 170.217 165.767 171.026L164.317 171.485Z" fill="#D26E7E"/>
<path d="M181.414 171.707C181.414 171.707 187.557 171.041 189.304 170.626C191.051 170.212 189.6 176.074 186.832 176.71C184.064 177.347 179.697 172.122 181.414 171.707V171.707Z" fill="#FEFEFF"/>
<path d="M183.768 158.547C183.768 158.547 182.687 169.072 183.264 169.22C183.842 169.368 189.363 168.08 189.437 167.503C189.511 166.926 183.25 155.735 183.768 158.547V158.547Z" fill="#D26E7E"/>
<path d="M158.366 151.753C158.366 151.753 152.623 133.738 161.904 128.202C168.21 124.442 186.21 119.675 190.34 122.947C194.47 126.218 197.52 139.97 197.475 141.613C197.431 143.256 158.366 151.753 158.366 151.753V151.753Z" fill="#306A72"/>
<path d="M190.213 161.363C191.15 161.181 191.69 159.897 191.418 158.495C191.146 157.093 190.166 156.104 189.229 156.286C188.291 156.467 187.752 157.751 188.023 159.153C188.295 160.556 189.276 161.545 190.213 161.363Z" fill="#352B4C"/>
<path d="M174.983 164.869C175.922 164.686 176.46 163.398 176.185 161.994C175.91 160.59 174.927 159.601 173.988 159.785C173.049 159.969 172.511 161.256 172.786 162.66C173.061 164.064 174.045 165.053 174.983 164.869Z" fill="#352B4C"/>
<path d="M166.611 150.006C166.611 150.006 168.21 157.052 166.611 158.991C165.012 160.931 168.787 168.406 168.787 169.22C168.787 170.034 164.346 169.22 161.623 161.819C158.899 154.417 157.182 151.309 159.239 150.983C161.297 150.657 165.782 148.926 166.611 150.006V150.006Z" fill="#352B4C"/>
<path d="M191.761 143.818C191.761 143.818 194.47 150.524 196.883 151.22C199.296 151.916 200.465 160.102 200.939 160.857C201.413 161.612 204.506 158.34 202.582 150.657C200.658 142.975 200.199 139.526 198.348 140.399C196.498 141.272 191.82 142.457 191.761 143.818Z" fill="#352B4C"/>
<path d="M159.239 150.953C159.239 150.953 180.259 145.032 187.01 137.734C193.76 130.437 201.901 124.131 206.49 128.053C211.079 131.976 208.192 138.326 194.722 142.856C183.26 146.961 171.348 149.68 159.239 150.953V150.953Z" fill="#352B4C"/>
<path d="M180.851 184.896C180.851 184.896 194.663 183.712 196.691 181.551C196.691 181.551 199.355 193.156 199.829 194.059C200.302 194.962 190.414 194.607 185.781 192.757C181.148 190.906 178.986 185.755 180.851 184.896Z" fill="#D26E7E"/>
<path d="M174.486 156.09C174.486 156.09 170.549 158.207 169.69 158.769C168.832 159.332 168.521 157.718 170.623 156.09C172.725 154.462 174.619 155.202 174.486 156.09Z" fill="#352B4C"/>
<path d="M194.692 151.812C194.692 151.812 190.251 151.812 189.2 151.96C188.149 152.108 188.638 150.48 191.258 150.021C193.878 149.562 195.255 151.013 194.692 151.812Z" fill="#352B4C"/>
<path d="M175.878 199.61C175.878 199.61 185.677 218.292 197.475 212.829C209.273 207.367 202.33 197.301 208.577 196.99C214.824 196.679 231.255 193.408 244 200.765C256.746 208.122 263.821 249.733 263.096 279.738C262.918 286.917 264.665 334.893 259.188 337.01C253.711 339.127 166.404 336.314 154.739 337.217C143.075 338.12 148.626 288.116 147.101 276.763C144.688 258.703 121.315 214.857 123.742 211.053C126.17 207.249 166.093 197.73 175.878 199.61V199.61Z" fill="#352B4C"/>
<path d="M176.899 539.705C176.899 539.705 209.036 557.084 201.679 558.135C194.322 559.186 167.203 558.327 162.17 558.135C157.596 557.942 157.596 556.033 157.596 556.033L159.254 538.373L176.899 539.705Z" fill="#352B4C"/>
<path d="M300.444 522.105C300.71 519.322 331.455 522.268 331.189 525.065C330.478 532.467 301.776 543.051 297.379 545.508C292.406 548.306 291.088 542.296 291.088 542.296L286.484 528.781L300.444 522.105Z" fill="#352B4C"/>
<path d="M134.075 211.097C134.075 211.097 56.3746 246.979 76.0623 287.643C76.0623 287.643 89.8289 296.11 103.448 290.737C117.066 285.363 150.521 261.93 154.428 253.004C158.336 244.078 134.075 211.097 134.075 211.097Z" fill="#DA8E8D"/>
<path d="M290.896 240.466C290.896 240.466 274.968 248.637 246.384 258.437C239.87 260.672 225.438 196.161 231.314 194.533C242.091 191.543 278.58 204.54 290.896 240.466Z" fill="#352B4C"/>
<path d="M96.9787 227.736C96.9787 227.736 117.806 275.593 127.428 271.804C137.05 268.014 161.652 250.947 157.374 240.718C153.096 230.489 141.594 204.318 135.866 206.094C121.344 210.058 108.001 217.484 96.9787 227.736Z" fill="#352B4C"/>
<path d="M162.748 200.262C162.748 200.262 175.907 235.685 185.337 238.068C194.766 240.451 234.852 232.68 234.852 232.68C231.714 215.864 216.793 196.013 216.793 196.013C216.793 196.013 227.569 193.216 231.344 194.533C235.119 195.851 254.318 219.861 261.453 250.458C265.894 269.361 271.164 337.795 271.164 337.795C262.889 348.068 152.119 358.948 150.654 352.835C137.746 298.582 166.641 291.358 162.777 251.79C160.734 230.859 146.687 203.163 146.687 203.163C151.797 201.149 157.255 200.163 162.748 200.262V200.262Z" fill="#306A72"/>
<path d="M165.827 235.626C165.827 235.626 178.794 224.864 180.111 218.558C181.429 212.252 187.098 224.405 179.49 232.547C179.49 232.547 188.164 238.231 187.616 244.581C187.069 250.932 184.656 267.185 176.115 263.603C167.573 260.021 154.429 253.004 154.429 253.004C154.429 253.004 152.164 238.69 165.827 235.626V235.626Z" fill="#DA8E8D"/>
<path d="M165.827 235.626C165.827 235.626 94.1662 254.04 82.0131 266.712C69.86 279.383 72.0211 295.681 96.9787 299.855C118.546 303.467 156.664 265.143 164.302 258.082C171.94 251.021 165.827 235.626 165.827 235.626V235.626Z" fill="#DA8E8D"/>
<path d="M146.657 539.513C146.657 539.513 173.879 541.452 187.365 539.705C200.85 537.959 216.97 473.581 219.206 449.304C221.441 425.028 224.105 368.333 224.105 368.333C224.105 368.333 243.556 405.34 249.433 433.465C253.311 452.013 268.129 529.225 277.366 529.477C287.846 529.758 315.306 520.032 315.01 512.557C314.862 508.634 312.996 429.898 302.856 403.179C292.717 376.46 272.407 329.165 268.81 326.678C265.213 324.191 150.195 343.968 150.624 352.938C151.053 361.909 159.239 408.034 157.374 428.758C156.59 437.299 136.71 540.297 146.657 539.513V539.513Z" fill="#306A72"/>
<path d="M314.787 506.34C314.787 506.34 298.815 522.49 292.332 479.828C285.848 437.166 290.289 405.222 273.458 374.861C256.627 344.5 256.642 307.627 253.03 286.177C249.418 264.728 251.92 225.19 253.03 227.662C266.471 257.711 263.851 263.514 268.795 286.177C273.739 308.84 275.175 336.314 284.56 358.533C293.945 380.753 310.968 393.365 314.787 506.34V506.34Z" fill="#5C7F7F"/>
<path d="M195.728 531.816C195.728 531.816 187.587 531.149 184.301 518.626C181.014 506.103 204.27 444.375 202.775 418.411C201.279 392.447 224.283 364.706 223.957 371.471C223.632 378.236 223.439 428.758 218.673 453.864C213.906 478.969 205.039 518.523 195.728 531.816V531.816Z" fill="#5C7F7F"/>
<path d="M110.716 255.506C110.716 255.506 99.4803 260.302 96.9787 261.501C94.477 262.7 103.847 242.154 103.847 242.154C103.847 242.154 110.508 251.746 110.716 255.506V255.506Z" fill="#D26E7E"/>
<path d="M313.559 293.697V290.825V287.939V258.496H293.249V287.939V290.825V293.697L296.639 290.825L300.029 293.697L303.404 290.825L306.794 293.697L310.169 290.825L313.559 293.697Z" fill="#EDC78F"/>
<path d="M328.525 285.274C328.525 285.274 320.442 284.534 315.913 288.501C313.751 290.381 324.557 291.225 324.557 291.225C324.557 291.225 306.587 293.549 307.001 296.776C307.416 300.003 319.88 298.449 319.88 298.449C319.88 298.449 305.565 298.449 307.12 301.409C309.547 306.028 319.125 303.718 319.125 303.718C319.125 303.718 307.282 306.679 311.398 308.485C315.513 310.291 326.289 309.669 330.508 307.493C334.727 305.317 338.901 289.212 328.525 285.274Z" fill="#DA8E8D"/>
</svg>
